<svg xmlns="http://www.w3.org/2000/svg" width="320" height="441" viewBox="0 0 320 441" role="img" aria-label="ExifCleaner case study">
<title>ExifCleaner case study</title>
<defs><pattern id="minor" width="12" height="12" patternUnits="userSpaceOnUse"><path d="M12 0H0V12" fill="none" stroke="#222220" stroke-width=".6"/></pattern><pattern id="grid" width="60" height="60" patternUnits="userSpaceOnUse"><rect width="60" height="60" fill="url(#minor)"/><path d="M60 0H0V60" fill="none" stroke="#30302e" stroke-width=".7"/></pattern><pattern id="hatch" width="4" height="4" patternUnits="userSpaceOnUse" patternTransform="rotate(45)"><path d="M0 0V4" stroke="#30302e" stroke-width=".8"/></pattern></defs>
<style>text{font-family:Charter, 'Bitstream Charter', 'Iowan Old Style', Cambria, 'Sitka Text', Georgia, serif}.m{font-family:ui-monospace, SFMono-Regular, 'SF Mono', Menlo, Consolas, 'Liberation Mono', monospace}.n{font-variant-numeric:tabular-nums}.d{stroke-dasharray:1;animation:d 1.3s cubic-bezier(.45,0,.25,1) both}@keyframes d{from{stroke-dashoffset:1}}.f{animation:f .7s ease-out both}@keyframes f{from{opacity:0}}.still{display:none}@media (prefers-reduced-motion:reduce){*{animation:none!important}.smil{display:none}.still{display:inline}}.tg0{animation:tg0 8s cubic-bezier(.5,0,.75,0) 1.6s infinite both}@keyframes tg0{0%,26%{transform:translateY(0);opacity:1}36%,90%{transform:translateY(12px);opacity:0}100%{transform:translateY(0);opacity:1}}.st0{animation:st0 8s 1.6s infinite both}@keyframes st0{0%,20%{stroke-dashoffset:1}25%,89%{stroke-dashoffset:0}90%,100%{stroke-dashoffset:1}}.tg1{animation:tg1 8s cubic-bezier(.5,0,.75,0) 1.6s infinite both}@keyframes tg1{0%,33%{transform:translateY(0);opacity:1}43%,90%{transform:translateY(12px);opacity:0}100%{transform:translateY(0);opacity:1}}.st1{animation:st1 8s 1.6s infinite both}@keyframes st1{0%,27%{stroke-dashoffset:1}32%,89%{stroke-dashoffset:0}90%,100%{stroke-dashoffset:1}}.tg2{animation:tg2 8s cubic-bezier(.5,0,.75,0) 1.6s infinite both}@keyframes tg2{0%,40%{transform:translateY(0);opacity:1}50%,90%{transform:translateY(12px);opacity:0}100%{transform:translateY(0);opacity:1}}.st2{animation:st2 8s 1.6s infinite both}@keyframes st2{0%,34%{stroke-dashoffset:1}39%,89%{stroke-dashoffset:0}90%,100%{stroke-dashoffset:1}}.tg3{animation:tg3 8s cubic-bezier(.5,0,.75,0) 1.6s infinite both}@keyframes tg3{0%,47%{transform:translateY(0);opacity:1}57%,90%{transform:translateY(12px);opacity:0}100%{transform:translateY(0);opacity:1}}.st3{animation:st3 8s 1.6s infinite both}@keyframes st3{0%,41%{stroke-dashoffset:1}46%,89%{stroke-dashoffset:0}90%,100%{stroke-dashoffset:1}}.cl{opacity:0;animation:cl 8s 1.6s infinite}@keyframes cl{0%,62%{opacity:0}66%,88%{opacity:1}92%,100%{opacity:0}}</style>
<g fill="#f5f4ed"><rect x="0.5" y="0.5" width="319" height="440" rx="6" fill="#1b1b1a"/><rect x="0.5" y="0.5" width="319" height="440" rx="6" fill="url(#grid)" stroke="#30302e"/><text x="16" y="26" font-size="11" fill="#96938a" letter-spacing="1" class="m">SHEET 05</text><rect x="185.6" y="12" width="122.4" height="20" rx="3" fill="#18283f"/><text x="193.6" y="26" font-size="11" fill="#c9d8ec" letter-spacing="1" class="m">IN DEVELOPMENT</text><g transform="translate(20 100.6) scale(0.7216)"><g transform="translate(82.5 11)"><g class="f" style="animation-delay:900ms"><g class="tg0"><path d="M98.3 62L135.9 32" stroke="#96938a" stroke-width=".8" fill="none"/><rect x="139.9" y="22" width="137.5" height="20" rx="3" fill="#141413" stroke="#30302e"/><path d="M144.9 32H272.4" stroke="#8fb0d8" stroke-width="1.3" pathLength="1" stroke-dasharray="1" stroke-dashoffset="1" class="st0"/></g><g class="tg1"><path d="M79.2 73L135.9 57" stroke="#96938a" stroke-width=".8" fill="none"/><rect x="139.9" y="47" width="111.5" height="20" rx="3" fill="#141413" stroke="#30302e"/><path d="M144.9 57H246.4" stroke="#8fb0d8" stroke-width="1.3" pathLength="1" stroke-dasharray="1" stroke-dashoffset="1" class="st1"/></g><g class="tg2"><path d="M60.2 84L135.9 82" stroke="#96938a" stroke-width=".8" fill="none"/><rect x="139.9" y="72" width="157" height="20" rx="3" fill="#141413" stroke="#30302e"/><path d="M144.9 82H291.9" stroke="#8fb0d8" stroke-width="1.3" pathLength="1" stroke-dasharray="1" stroke-dashoffset="1" class="st2"/></g><g class="tg3"><path d="M41.1 95L135.9 107" stroke="#96938a" stroke-width=".8" fill="none"/><rect x="139.9" y="97" width="111.5" height="20" rx="3" fill="#141413" stroke="#30302e"/><path d="M144.9 107H246.4" stroke="#8fb0d8" stroke-width="1.3" pathLength="1" stroke-dasharray="1" stroke-dashoffset="1" class="st3"/></g></g><path d="M-74.5 43L29.4 103L29.4 100L-74.5 40Z" fill="#1f1f1d" class="f" style="animation-delay:900ms"/><path d="M103.9 60L29.4 103L29.4 100L103.9 57Z" fill="#171716" class="f" style="animation-delay:900ms"/><path d="M0 -3L103.9 57L29.4 100L-74.5 40Z" fill="#282826" class="f" style="animation-delay:900ms"/><path d="M0 -3L103.9 57L103.9 60L29.4 103L-74.5 43L-74.5 40ZM29.4 103L29.4 100M-74.5 40L29.4 100L103.9 57" fill="none" stroke="#f5f4ed" stroke-width="1.1" stroke-linejoin="round" stroke-linecap="round" pathLength="1" class="d" style="animation-delay:100ms"/><path d="M0 3L93.5 57L29.4 94L-64.1 40Z" fill="none" stroke="#96938a" stroke-width="0.8" stroke-linejoin="round" stroke-linecap="round" pathLength="1" class="d" style="animation-delay:126ms"/><path d="M-55.4 39L-5.2 38L-5.2 54L39.8 50L31.2 89" fill="none" stroke="#f5f4ed" stroke-width="1" stroke-linejoin="round" stroke-linecap="round" pathLength="1" class="d" style="animation-delay:152ms"/><path d="M66.7 55.5L65.2 56.2L63.5 56.7L61.6 56.9L59.7 56.9L57.8 56.7L56.1 56.2L54.6 55.5L53.4 54.6L52.5 53.6L52.1 52.6L52.1 51.4L52.5 50.4L53.4 49.4L54.6 48.5L56.1 47.8L57.8 47.3L59.7 47.1L61.6 47.1L63.5 47.3L65.2 47.8L66.7 48.5L67.9 49.4L68.7 50.4L69.1 51.4L69.1 52.6L68.7 53.6L67.9 54.6Z" fill="none" stroke="#8fb0d8" stroke-width="1" stroke-linejoin="round" stroke-linecap="round" pathLength="1" class="d" style="animation-delay:178ms"/></g></g><rect x="0" y="272" width="320" height="1" fill="#30302e"/><text x="16" y="293" font-size="11" fill="#96938a" letter-spacing="1" class="m">PROJECT</text><text x="16" y="314" font-size="15" class="n">ExifCleaner</text><rect x="160" y="272" width="1" height="75" fill="#30302e"/><text x="176" y="293" font-size="11" fill="#96938a" letter-spacing="1" class="m">KIND</text><text x="176" y="314" font-size="15" class="n">Desktop privacy</text><text x="176" y="333" font-size="15" class="n">tool</text><rect x="0" y="347" width="320" height="1" fill="#30302e"/><text x="16" y="368" font-size="11" fill="#96938a" letter-spacing="1" class="m">SOURCE</text><text x="16" y="389" font-size="15" class="n">Open source</text><text x="16" y="408" font-size="15" class="n">soon</text><rect x="160" y="347" width="1" height="94" fill="#30302e"/><text x="176" y="368" font-size="11" fill="#96938a" letter-spacing="1" class="m">STACK</text><text x="176" y="389" font-size="15" class="n">Electron</text><text x="176" y="408" font-size="15" class="n">ExifTool</text><text x="176" y="427" font-size="15" class="n">Tailwind</text></g>
</svg>
